<?xml version="1.0" encoding="UTF-8"?>
<svg version="1.1" xmlns="http://www.w3.org/2000/svg" width="150" height="150">
<path d="M0 0 C11.4849609 8.86376863 20.8379755 20.23708522 23 35 C24.08152079 52.02065513 20.84243589 65.22773016 9.81640625 78.66015625 C1.06124197 88.19164052 -10.97916361 94.57377722 -24.04296875 95.3359375 C-40.53732203 95.69639447 -53.6571294 91.17320911 -65.8125 79.6875 C-76.61147487 68.30897371 -80.47430532 55.27569936 -80.21484375 39.85546875 C-79.91903744 34.54709002 -78.87016561 29.96166387 -77 25 C-76.69449219 24.18273438 -76.38898438 23.36546875 -76.07421875 22.5234375 C-70.70084765 10.21353281 -59.79537633 0.09154695 -47.484375 -5.05078125 C-31.55891092 -10.61414701 -14.31850476 -9.07892573 0 0 Z " fill="#353535" transform="translate(105,32)"/>
<path d="M0 0 C5.2536875 2.71194668 8.0402458 6.81604991 9.87109375 12.30859375 C9.87109375 14.94859375 9.87109375 17.58859375 9.87109375 20.30859375 C0.63109375 20.30859375 -8.60890625 20.30859375 -18.12890625 20.30859375 C-15.9690403 28.48178894 -15.9690403 28.48178894 -13.50390625 31.37109375 C-9.73640236 32.85826634 -6.11823004 32.85859243 -2.12890625 32.30859375 C1.16040889 30.5817033 1.68512045 29.86651365 2.87109375 26.30859375 C5.18109375 26.30859375 7.49109375 26.30859375 9.87109375 26.30859375 C8.54880946 31.99441618 6.46854073 34.02470305 1.87109375 37.30859375 C-3.3891187 39.0619979 -8.6615353 39.08319176 -14.12890625 38.30859375 C-18.89221337 35.89381054 -21.99741931 32.30277035 -24.12890625 27.43359375 C-26.28597916 20.19199184 -25.72823613 13.99306353 -22.12890625 7.30859375 C-16.71112407 -0.63748678 -9.27367622 -3.01181778 0 0 Z " fill="#F7F7F7" transform="translate(64.12890625,56.69140625)"/>
<path d="M0 0 C3.25619851 -0.81404963 5.77411216 -1.01399248 9 0 C12.26497275 3.66706299 14.65206862 7.7007905 17 12 C19.89804349 9.21730153 22.33861689 6.68561717 24.3125 3.1875 C25.8241748 0.94905847 26.41842109 0.12369402 29.09375 -0.4453125 C31.3125 -0.4375 31.3125 -0.4375 35 0 C34.12824374 1.3354564 33.25235729 2.66821662 32.375 4 C31.83617187 4.81984375 31.29734375 5.6396875 30.7421875 6.484375 C28.64619427 9.51087644 26.32444542 12.3043126 23.90625 15.078125 C22.76045434 17.00179284 22.76045434 17.00179284 23.4921875 19.25390625 C25.54557848 22.99363128 28.03779039 26.30245799 30.625 29.6875 C31.64232531 31.02146781 32.65556844 32.35856196 33.6640625 33.69921875 C34.11217285 34.28533936 34.5602832 34.87145996 35.02197266 35.4753418 C36 37 36 37 36 39 C33.00217148 39.35871452 30.90650105 39.5972993 28 39 C25.60013284 37.02847099 24.11468567 34.63021124 22.5 32 C21.83871094 30.99839844 21.83871094 30.99839844 21.1640625 29.9765625 C20.08451749 28.33377662 19.03878086 26.66886105 18 25 C14.95000358 27.83782275 12.89285118 30.69245095 10.75 34.25 C7.67110238 38.80489843 7.67110238 38.80489843 4.76953125 39.6484375 C2.5625 39.625 2.5625 39.625 -1 39 C2.73386319 32.99046871 6.45310362 27.16125772 11.03125 21.75390625 C12.203027 20.05253249 12.203027 20.05253249 11.71704102 18.11767578 C10.93790066 15.81659867 9.96058508 14.2954775 8.49609375 12.36328125 C8.00302734 11.70392578 7.50996094 11.04457031 7.00195312 10.36523438 C6.22754883 9.34913086 6.22754883 9.34913086 5.4375 8.3125 C4.41339589 6.95591103 3.39115284 5.5979144 2.37109375 4.23828125 C1.91661865 3.64055908 1.46214355 3.04283691 0.99389648 2.42700195 C0 1 0 1 0 0 Z " fill="#F7F7F7" transform="translate(77,56)"/>
<path d="M0 0 C2.77029851 1.63404326 5.12414707 3.37152523 7 6 C7 7.65 7 9.3 7 11 C0.07 11 -6.86 11 -14 11 C-13 5 -13 5 -10.375 2.125 C-6.35204784 -0.40796988 -4.6621175 -0.89970689 0 0 Z " fill="#373737" transform="translate(60,61)"/>
</svg>
